<svg xmlns="http://www.w3.org/2000/svg" xmlns:xlink="http://www.w3.org/1999/xlink" width="140" zoomAndPan="magnify" viewBox="0 0 104.88 104.999996" height="140" preserveAspectRatio="xMidYMid meet" version="1.0"><defs><g/><clipPath id="fe4d330d04"><path d="M 0 11.261719 L 104.453125 11.261719 L 104.453125 81 L 0 81 Z M 0 11.261719 " clip-rule="nonzero"/></clipPath><clipPath id="02d8296710"><path d="M 30 77 L 58 77 L 58 104.832031 L 30 104.832031 Z M 30 77 " clip-rule="nonzero"/></clipPath></defs><g clip-path="url(#fe4d330d04)"><path fill="#db3f1d" d="M 104.417969 59.183594 C 104.417969 71.203125 94.671875 80.933594 82.660156 80.933594 L 21.75 80.933594 C 9.742188 80.933594 0 71.199219 0 59.183594 L 0 33.078125 C 0 21.070312 9.742188 11.332031 21.75 11.332031 L 82.660156 11.332031 C 94.671875 11.332031 104.410156 21.070312 104.410156 33.078125 L 104.410156 59.183594 Z M 104.417969 59.183594 " fill-opacity="1" fill-rule="nonzero"/></g><g clip-path="url(#02d8296710)"><path fill="#db3f1d" d="M 30.457031 78.039062 L 30.457031 104.863281 L 57.640625 77.671875 Z M 30.457031 78.039062 " fill-opacity="1" fill-rule="nonzero"/></g><g fill="#f9f9f9" fill-opacity="1"><g transform="translate(15.353851, 31.003319)"><g><path d="M 18.015625 -17.28125 C 18.015625 -14.96875 17.015625 -13.210938 15.015625 -12.015625 C 16.097656 -11.617188 17.003906 -10.929688 17.734375 -9.953125 C 18.472656 -8.972656 18.84375 -7.585938 18.84375 -5.796875 C 18.84375 -4.015625 18.179688 -2.601562 16.859375 -1.5625 C 15.546875 -0.519531 13.65625 0 11.1875 0 L 3.328125 0 C 2.953125 0 2.640625 -0.125 2.390625 -0.375 C 2.148438 -0.632812 2.03125 -0.976562 2.03125 -1.40625 L 2.03125 -22.703125 C 2.03125 -22.953125 2.066406 -23.113281 2.140625 -23.1875 C 2.222656 -23.269531 2.382812 -23.3125 2.625 -23.3125 L 10.21875 -23.3125 C 15.414062 -23.3125 18.015625 -21.300781 18.015625 -17.28125 Z M 8.421875 -17.90625 L 8.421875 -13.546875 L 8.59375 -13.546875 C 10.71875 -13.546875 11.78125 -14.257812 11.78125 -15.6875 C 11.78125 -16.457031 11.578125 -17.019531 11.171875 -17.375 C 10.765625 -17.726562 10.082031 -17.90625 9.125 -17.90625 Z M 8.421875 -9.625 L 8.421875 -5.296875 L 9.03125 -5.296875 C 9.976562 -5.296875 10.671875 -5.472656 11.109375 -5.828125 C 11.554688 -6.179688 11.78125 -6.742188 11.78125 -7.515625 C 11.78125 -8.296875 11.578125 -8.84375 11.171875 -9.15625 C 10.765625 -9.46875 10.082031 -9.625 9.125 -9.625 Z M 8.421875 -9.625 "/></g></g></g><g fill="#f9f9f9" fill-opacity="1"><g transform="translate(33.861069, 31.003319)"><g><path d="M 1.328125 -1.96875 L 1.328125 -22.671875 C 1.328125 -23.140625 2.453125 -23.375 4.703125 -23.375 C 6.960938 -23.375 8.09375 -23.140625 8.09375 -22.671875 L 8.09375 -6.359375 L 13.21875 -6.359375 C 13.613281 -6.359375 13.890625 -5.835938 14.046875 -4.796875 C 14.117188 -4.285156 14.15625 -3.765625 14.15625 -3.234375 C 14.15625 -2.703125 14.117188 -2.15625 14.046875 -1.59375 C 13.867188 -0.53125 13.582031 0 13.1875 0 L 2.9375 0 C 2.445312 0 2.054688 -0.195312 1.765625 -0.59375 C 1.472656 -1 1.328125 -1.457031 1.328125 -1.96875 Z M 1.328125 -1.96875 "/></g></g></g><g fill="#f9f9f9" fill-opacity="1"><g transform="translate(47.075629, 31.003319)"><g><path d="M 17.3125 0.0625 C 15.382812 0.0625 14.34375 -0.242188 14.1875 -0.859375 L 13.078125 -5.15625 L 7.796875 -5.15625 L 6.828125 -1.03125 C 6.691406 -0.34375 5.625 0 3.625 0 C 2.5625 0 1.773438 -0.0546875 1.265625 -0.171875 C 0.753906 -0.296875 0.5 -0.394531 0.5 -0.46875 L 6.390625 -23.015625 C 6.390625 -23.191406 7.910156 -23.28125 10.953125 -23.28125 C 13.992188 -23.28125 15.515625 -23.191406 15.515625 -23.015625 L 21.28125 -0.4375 C 21.28125 -0.28125 20.769531 -0.15625 19.75 -0.0625 C 18.726562 0.0195312 17.914062 0.0625 17.3125 0.0625 Z M 8.625 -9.390625 L 12.125 -9.390625 L 10.625 -16.28125 L 10.421875 -16.28125 Z M 8.625 -9.390625 "/></g></g></g><g fill="#f9f9f9" fill-opacity="1"><g transform="translate(67.613363, 31.003319)"><g><path d="M 19.78125 -0.5625 C 19.78125 -0.1875 18.65625 0 16.40625 0 C 14.164062 0 13.046875 -0.1875 13.046875 -0.5625 L 13.046875 -8.21875 L 8.390625 -8.21875 L 8.390625 -0.5625 C 8.390625 -0.1875 7.269531 0 5.03125 0 C 2.789062 0 1.671875 -0.1875 1.671875 -0.5625 L 1.671875 -22.640625 C 1.671875 -23.109375 2.789062 -23.34375 5.03125 -23.34375 C 7.269531 -23.34375 8.390625 -23.109375 8.390625 -22.640625 L 8.390625 -14.8125 L 13.046875 -14.8125 L 13.046875 -22.578125 C 13.046875 -22.890625 13.601562 -23.109375 14.71875 -23.234375 C 15.289062 -23.285156 15.859375 -23.3125 16.421875 -23.3125 L 18.109375 -23.234375 C 19.222656 -23.109375 19.78125 -22.890625 19.78125 -22.578125 Z M 19.78125 -0.5625 "/></g></g></g><g fill="#f9f9f9" fill-opacity="1"><g transform="translate(15.353851, 56.00691)"><g><path d="M 18.015625 -17.28125 C 18.015625 -14.96875 17.015625 -13.210938 15.015625 -12.015625 C 16.097656 -11.617188 17.003906 -10.929688 17.734375 -9.953125 C 18.472656 -8.972656 18.84375 -7.585938 18.84375 -5.796875 C 18.84375 -4.015625 18.179688 -2.601562 16.859375 -1.5625 C 15.546875 -0.519531 13.65625 0 11.1875 0 L 3.328125 0 C 2.953125 0 2.640625 -0.125 2.390625 -0.375 C 2.148438 -0.632812 2.03125 -0.976562 2.03125 -1.40625 L 2.03125 -22.703125 C 2.03125 -22.953125 2.066406 -23.113281 2.140625 -23.1875 C 2.222656 -23.269531 2.382812 -23.3125 2.625 -23.3125 L 10.21875 -23.3125 C 15.414062 -23.3125 18.015625 -21.300781 18.015625 -17.28125 Z M 8.421875 -17.90625 L 8.421875 -13.546875 L 8.59375 -13.546875 C 10.71875 -13.546875 11.78125 -14.257812 11.78125 -15.6875 C 11.78125 -16.457031 11.578125 -17.019531 11.171875 -17.375 C 10.765625 -17.726562 10.082031 -17.90625 9.125 -17.90625 Z M 8.421875 -9.625 L 8.421875 -5.296875 L 9.03125 -5.296875 C 9.976562 -5.296875 10.671875 -5.472656 11.109375 -5.828125 C 11.554688 -6.179688 11.78125 -6.742188 11.78125 -7.515625 C 11.78125 -8.296875 11.578125 -8.84375 11.171875 -9.15625 C 10.765625 -9.46875 10.082031 -9.625 9.125 -9.625 Z M 8.421875 -9.625 "/></g></g></g><g fill="#f9f9f9" fill-opacity="1"><g transform="translate(33.861069, 56.00691)"><g><path d="M 1.328125 -1.96875 L 1.328125 -22.671875 C 1.328125 -23.140625 2.453125 -23.375 4.703125 -23.375 C 6.960938 -23.375 8.09375 -23.140625 8.09375 -22.671875 L 8.09375 -6.359375 L 13.21875 -6.359375 C 13.613281 -6.359375 13.890625 -5.835938 14.046875 -4.796875 C 14.117188 -4.285156 14.15625 -3.765625 14.15625 -3.234375 C 14.15625 -2.703125 14.117188 -2.15625 14.046875 -1.59375 C 13.867188 -0.53125 13.582031 0 13.1875 0 L 2.9375 0 C 2.445312 0 2.054688 -0.195312 1.765625 -0.59375 C 1.472656 -1 1.328125 -1.457031 1.328125 -1.96875 Z M 1.328125 -1.96875 "/></g></g></g><g fill="#f9f9f9" fill-opacity="1"><g transform="translate(47.075629, 56.00691)"><g><path d="M 17.3125 0.0625 C 15.382812 0.0625 14.34375 -0.242188 14.1875 -0.859375 L 13.078125 -5.15625 L 7.796875 -5.15625 L 6.828125 -1.03125 C 6.691406 -0.34375 5.625 0 3.625 0 C 2.5625 0 1.773438 -0.0546875 1.265625 -0.171875 C 0.753906 -0.296875 0.5 -0.394531 0.5 -0.46875 L 6.390625 -23.015625 C 6.390625 -23.191406 7.910156 -23.28125 10.953125 -23.28125 C 13.992188 -23.28125 15.515625 -23.191406 15.515625 -23.015625 L 21.28125 -0.4375 C 21.28125 -0.28125 20.769531 -0.15625 19.75 -0.0625 C 18.726562 0.0195312 17.914062 0.0625 17.3125 0.0625 Z M 8.625 -9.390625 L 12.125 -9.390625 L 10.625 -16.28125 L 10.421875 -16.28125 Z M 8.625 -9.390625 "/></g></g></g><g fill="#f9f9f9" fill-opacity="1"><g transform="translate(67.613363, 56.00691)"><g><path d="M 19.78125 -0.5625 C 19.78125 -0.1875 18.65625 0 16.40625 0 C 14.164062 0 13.046875 -0.1875 13.046875 -0.5625 L 13.046875 -8.21875 L 8.390625 -8.21875 L 8.390625 -0.5625 C 8.390625 -0.1875 7.269531 0 5.03125 0 C 2.789062 0 1.671875 -0.1875 1.671875 -0.5625 L 1.671875 -22.640625 C 1.671875 -23.109375 2.789062 -23.34375 5.03125 -23.34375 C 7.269531 -23.34375 8.390625 -23.109375 8.390625 -22.640625 L 8.390625 -14.8125 L 13.046875 -14.8125 L 13.046875 -22.578125 C 13.046875 -22.890625 13.601562 -23.109375 14.71875 -23.234375 C 15.289062 -23.285156 15.859375 -23.3125 16.421875 -23.3125 L 18.109375 -23.234375 C 19.222656 -23.109375 19.78125 -22.890625 19.78125 -22.578125 Z M 19.78125 -0.5625 "/></g></g></g><g fill="#f9f9f9" fill-opacity="1"><g transform="translate(15.353851, 81.166127)"><g><path d="M 18.015625 -17.28125 C 18.015625 -14.96875 17.015625 -13.210938 15.015625 -12.015625 C 16.097656 -11.617188 17.003906 -10.929688 17.734375 -9.953125 C 18.472656 -8.972656 18.84375 -7.585938 18.84375 -5.796875 C 18.84375 -4.015625 18.179688 -2.601562 16.859375 -1.5625 C 15.546875 -0.519531 13.65625 0 11.1875 0 L 3.328125 0 C 2.953125 0 2.640625 -0.125 2.390625 -0.375 C 2.148438 -0.632812 2.03125 -0.976562 2.03125 -1.40625 L 2.03125 -22.703125 C 2.03125 -22.953125 2.066406 -23.113281 2.140625 -23.1875 C 2.222656 -23.269531 2.382812 -23.3125 2.625 -23.3125 L 10.21875 -23.3125 C 15.414062 -23.3125 18.015625 -21.300781 18.015625 -17.28125 Z M 8.421875 -17.90625 L 8.421875 -13.546875 L 8.59375 -13.546875 C 10.71875 -13.546875 11.78125 -14.257812 11.78125 -15.6875 C 11.78125 -16.457031 11.578125 -17.019531 11.171875 -17.375 C 10.765625 -17.726562 10.082031 -17.90625 9.125 -17.90625 Z M 8.421875 -9.625 L 8.421875 -5.296875 L 9.03125 -5.296875 C 9.976562 -5.296875 10.671875 -5.472656 11.109375 -5.828125 C 11.554688 -6.179688 11.78125 -6.742188 11.78125 -7.515625 C 11.78125 -8.296875 11.578125 -8.84375 11.171875 -9.15625 C 10.765625 -9.46875 10.082031 -9.625 9.125 -9.625 Z M 8.421875 -9.625 "/></g></g></g><g fill="#f9f9f9" fill-opacity="1"><g transform="translate(33.861069, 81.166127)"><g><path d="M 1.328125 -1.96875 L 1.328125 -22.671875 C 1.328125 -23.140625 2.453125 -23.375 4.703125 -23.375 C 6.960938 -23.375 8.09375 -23.140625 8.09375 -22.671875 L 8.09375 -6.359375 L 13.21875 -6.359375 C 13.613281 -6.359375 13.890625 -5.835938 14.046875 -4.796875 C 14.117188 -4.285156 14.15625 -3.765625 14.15625 -3.234375 C 14.15625 -2.703125 14.117188 -2.15625 14.046875 -1.59375 C 13.867188 -0.53125 13.582031 0 13.1875 0 L 2.9375 0 C 2.445312 0 2.054688 -0.195312 1.765625 -0.59375 C 1.472656 -1 1.328125 -1.457031 1.328125 -1.96875 Z M 1.328125 -1.96875 "/></g></g></g><g fill="#f9f9f9" fill-opacity="1"><g transform="translate(47.075629, 81.166127)"><g><path d="M 17.3125 0.0625 C 15.382812 0.0625 14.34375 -0.242188 14.1875 -0.859375 L 13.078125 -5.15625 L 7.796875 -5.15625 L 6.828125 -1.03125 C 6.691406 -0.34375 5.625 0 3.625 0 C 2.5625 0 1.773438 -0.0546875 1.265625 -0.171875 C 0.753906 -0.296875 0.5 -0.394531 0.5 -0.46875 L 6.390625 -23.015625 C 6.390625 -23.191406 7.910156 -23.28125 10.953125 -23.28125 C 13.992188 -23.28125 15.515625 -23.191406 15.515625 -23.015625 L 21.28125 -0.4375 C 21.28125 -0.28125 20.769531 -0.15625 19.75 -0.0625 C 18.726562 0.0195312 17.914062 0.0625 17.3125 0.0625 Z M 8.625 -9.390625 L 12.125 -9.390625 L 10.625 -16.28125 L 10.421875 -16.28125 Z M 8.625 -9.390625 "/></g></g></g><g fill="#f9f9f9" fill-opacity="1"><g transform="translate(67.613363, 81.166127)"><g><path d="M 19.78125 -0.5625 C 19.78125 -0.1875 18.65625 0 16.40625 0 C 14.164062 0 13.046875 -0.1875 13.046875 -0.5625 L 13.046875 -8.21875 L 8.390625 -8.21875 L 8.390625 -0.5625 C 8.390625 -0.1875 7.269531 0 5.03125 0 C 2.789062 0 1.671875 -0.1875 1.671875 -0.5625 L 1.671875 -22.640625 C 1.671875 -23.109375 2.789062 -23.34375 5.03125 -23.34375 C 7.269531 -23.34375 8.390625 -23.109375 8.390625 -22.640625 L 8.390625 -14.8125 L 13.046875 -14.8125 L 13.046875 -22.578125 C 13.046875 -22.890625 13.601562 -23.109375 14.71875 -23.234375 C 15.289062 -23.285156 15.859375 -23.3125 16.421875 -23.3125 L 18.109375 -23.234375 C 19.222656 -23.109375 19.78125 -22.890625 19.78125 -22.578125 Z M 19.78125 -0.5625 "/></g></g></g></svg>